<?xml version="1.0" encoding="UTF-8" standalone="no" ?>
<!DOCTYPE svg PUBLIC "-//W3C//DTD SVG 1.1//EN" "http://www.w3.org/Graphics/SVG/1.1/DTD/svg11.dtd">
<svg xmlns="http://www.w3.org/2000/svg" xmlns:xlink="http://www.w3.org/1999/xlink" version="1.1" width="1080" height="1080" viewBox="0 0 1080 1080" xml:space="preserve">
<desc>Created with Fabric.js 5.2.4</desc>
<defs>
</defs>
<g transform="matrix(1 0 0 1 540 540)" id="45e63454-47dd-493d-b90c-a659dd1202f7"  >
<rect style="stroke: none; stroke-width: 1; stroke-dasharray: none; stroke-linecap: butt; stroke-dashoffset: 0; stroke-linejoin: miter; stroke-miterlimit: 4; fill: rgb(255,255,255); fill-rule: nonzero; opacity: 1; visibility: hidden;" vector-effect="non-scaling-stroke"  x="-540" y="-540" rx="0" ry="0" width="1080" height="1080" />
</g>
<g transform="matrix(1 0 0 1 540 540)" id="111b32ad-6032-40ac-b487-c17175d3e65b"  >
</g>
<g transform="matrix(1 0 0 1 540 540)"  >
<g style="" vector-effect="non-scaling-stroke"   >
		<g transform="matrix(-0.41 0.91 -0.91 -0.41 -379.84 -40.15)"  >
<ellipse style="stroke: none; stroke-width: 1; stroke-dasharray: none; stroke-linecap: butt; stroke-dashoffset: 0; stroke-linejoin: miter; stroke-miterlimit: 4; fill: rgb(255,255,255); fill-rule: nonzero; opacity: 1;" vector-effect="non-scaling-stroke"  cx="0" cy="0" rx="19.08" ry="17.84" />
</g>
		<g transform="matrix(1 0 0 1 -327.24 -45.94)"  >
<path style="stroke: none; stroke-width: 1; stroke-dasharray: none; stroke-linecap: butt; stroke-dashoffset: 0; stroke-linejoin: miter; stroke-miterlimit: 4; fill: rgb(255,255,255); fill-rule: nonzero; opacity: 1;" vector-effect="non-scaling-stroke"  transform=" translate(-146.9, -82.57)" d="M 150.51 72.18 C 161.64 72.51 167.07 82.46 164.44 92.7 Q 164.3 93.22 163.92 92.84 Q 148.36 77.67 130.27 90.61 C 129.93821431910266 90.85156920131018 129.49104595050773 90.86081052758067 129.14956312588822 90.63315531116767 C 128.80808030126875 90.40550009475467 128.64462292221268 89.98917493671686 128.74 89.59 Q 132.91 71.66 150.51 72.18 Z" stroke-linecap="round" />
</g>
		<g transform="matrix(1 0 0 1 -220.66 5.45)"  >
<path style="stroke: none; stroke-width: 1; stroke-dasharray: none; stroke-linecap: butt; stroke-dashoffset: 0; stroke-linejoin: miter; stroke-miterlimit: 4; fill: rgb(255,255,255); fill-rule: nonzero; opacity: 1;" vector-effect="non-scaling-stroke"  transform=" translate(-253.49, -133.96)" d="M 217.38 149.74 C 222.05 150.74 258.64 158.07 256.62 149.42 Q 256.52 148.98 256.14 148.73 Q 252.53 146.27 248.25 146.49 C 234.75 147.15 220.96 143.54 219.11 127.81 Q 216.57 106.16 233.51 95.06 C 251.77 83.12 275.12 86 295.09 86.8 C 295.34516718620296 86.81021537844795 295.5833123248065 86.93077210475876 295.74260752876756 87.13037091454127 C 295.9019027327286 87.32996972432379 295.96663559710214 87.58892278487582 295.92 87.84 L 290.96 115.81 C 290.9264544662737 116.0088646042905 290.8131712653911 116.18562910901514 290.64571567542316 116.30040204146506 C 290.47826008545525 116.415174973915 290.2707444398752 116.45828383586701 290.07 116.42 C 283.56 115.13 259.92 111.45 255.04 115.72 C 253.78 116.83 253.97 118.79 255.31 119.67 C 260.45 123.1 269.41 121.51 274.18 122.57 Q 293.43 126.84 291.47 146.27 C 287.48 185.99 239.15 185.49 211.42 178.14 C 211.16150833233445 178.07127936941606 211.00287647998144 177.81129938917087 211.06 177.55 L 216.64 150.22 C 216.67357128812682 150.05771590414733 216.77071371928884 149.91562591753657 216.90974648693205 149.82544250068693 C 217.04877925457527 149.73525908383726 217.21812926184117 149.70448911038667 217.38 149.74 Z" stroke-linecap="round" />
</g>
		<g transform="matrix(1 0 0 1 65.6 5.24)"  >
<path style="stroke: none; stroke-width: 1; stroke-dasharray: none; stroke-linecap: butt; stroke-dashoffset: 0; stroke-linejoin: miter; stroke-miterlimit: 4; fill: rgb(255,255,255); fill-rule: nonzero; opacity: 1;" vector-effect="non-scaling-stroke"  transform=" translate(-539.74, -133.76)" d="M 548.45 122.8 L 574.75 121.63 C 574.9609619739905 121.61980896374935 575.1649798465647 121.7068355170185 575.3021034477599 121.86550711268718 C 575.4392270489551 122.02417870835585 575.4938790169359 122.23647011344343 575.45 122.44 L 570.72 144.7 Q 570.6 145.25 570.04 145.25 L 543.59 145.25 Q 543 145.25 542.97 145.83 L 542.67 151.31 Q 542.63 152 543.32 152 L 579.53 152 C 579.7179493048587 151.99822634900215 579.8962643301782 152.08313442915315 580.0148370223102 152.23086434066184 C 580.1334097144421 152.37859425217053 580.1794425842702 152.57320158236726 580.14 152.76 L 574.23 179.74 C 574.1639524750861 180.04461722838306 573.8970712369648 180.26145823435655 573.59 180.26 Q 531.27 180.3 489.01 180.07 Q 487.31 180.06 485.88 179.99 C 485.8302943725152 179.99 485.79 179.94970562748478 485.79 179.9 C 485.79 179.85029437251524 485.8302943725152 179.81 485.88 179.81 C 513.04 178.79 528.53 154.98 533 130.69 C 537.12 108.31 527.57 92.19 504.45 87.8 C 504.3126173907428 87.7646569732159 504.22096614153764 87.63511700121059 504.23336204618226 87.4938036882616 C 504.24575795082694 87.35249037531261 504.3585622915357 87.24088510417694 504.5 87.23 L 593.11 87.26 Q 593.76 87.26 593.63 87.89 L 587.84 114.91 Q 587.72 115.5 587.11 115.5 L 549.54 115.5 C 549.1316699295472 115.50068817469906 548.7839239279024 115.80178532246472 548.72 116.21 L 547.86 122.14 C 547.8361080112836 122.31095293597515 547.8882876296667 122.48371542851237 548.0023505910058 122.61131128356965 C 548.1164135523449 122.73890713862693 548.2805026169964 122.80807232541656 548.45 122.8 Z" stroke-linecap="round" />
</g>
		<g transform="matrix(1 0 0 1 368.71 5.88)"  >
<path style="stroke: none; stroke-width: 1; stroke-dasharray: none; stroke-linecap: butt; stroke-dashoffset: 0; stroke-linejoin: miter; stroke-miterlimit: 4; fill: rgb(255,255,255); fill-rule: nonzero; opacity: 1;" vector-effect="non-scaling-stroke"  transform=" translate(-842.85, -134.39)" d="M 815.17 156.98 C 809.24 156.9 803.65 153.63 805.07 146.94 Q 805.16 146.48 805.56 146.23 C 816.68 139.12 820.5 127.02 821.28 114.32 C 822.23 98.94 812.31 90.38 798.42 87.87 C 798.2432688800541 87.85343145750507 798.113431457505 87.69673111994582 798.13 87.51999999999997 C 798.146568542495 87.34326888005413 798.3032688800541 87.21343145750507 798.48 87.23 C 815.47 87.44 832.5 87.26 849.5 87.27 C 883.59 87.29 893.34 113.84 884.5 142.36 C 874.7 173.99 844.45 185.41 813.89 180.44 C 813.4387090997058 180.3686060831476 813.1251121660816 179.94900455224206 813.18 179.49 L 815.73 157.62 Q 815.8 156.99 815.17 156.98 Z M 837.3 116.78 L 831.21 150.97 Q 831.13 151.41 831.57 151.46 C 843.17 152.75 850.58 146.23 852.85 135.43 C 854.05 129.74 854.01 120.33 848 117.18 C 845.27 115.74 841.47 115.88 838.27 115.95 C 837.7906137459983 115.96885603349585 837.3883436776226 116.3130665043739 837.3 116.78 Z" stroke-linecap="round" />
</g>
		<g transform="matrix(1 0 0 1 -135.2 5.74)"  >
<path style="stroke: none; stroke-width: 1; stroke-dasharray: none; stroke-linecap: butt; stroke-dashoffset: 0; stroke-linejoin: miter; stroke-miterlimit: 4; fill: rgb(255,255,255); fill-rule: nonzero; opacity: 1;" vector-effect="non-scaling-stroke"  transform=" translate(-338.95, -134.26)" d="M 334.23 120.23 C 349.7 117.7 356.19 101.81 355.75 87.78 C 355.7445568975477 87.64130870401313 355.7958762350567 87.50638982555014 355.8921160892304 87.4063758594481 C 355.98835594340403 87.30636189334606 356.12120197570886 87.24989323062995 356.26 87.25 L 388.26 87.25 Q 388.95 87.25 388.95 87.94 C 389 107.48 380.48 125.37 362.54 134.17 Q 362.07 134.4 362.08 134.92 Q 362.24 153.59 380.99 151.9 Q 381.65 151.84 381.57 152.5 L 378.45 178.77 C 378.3662271339383 179.4537224503833 377.83003223162257 179.99810353441384 377.14 180.1 C 373.78 180.59 370.1 181.27 366.84 181.26 C 344.77 181.15 336.68 166.44 334.7 146.32 C 334.6628289843648 145.88434939893946 334.28661890147924 145.55682532678026 333.85 145.58 L 329.44 145.82 C 329.052477161478 145.83864511651072 328.7274018371491 146.1143419105618 328.65 146.49 L 321.8 179.28 C 321.7431229834679 179.5538649627527 321.50506563093654 179.75015786747156 321.23 179.75 L 289.5 179.75 C 289.3367463031454 179.75026822485924 289.1820454867146 179.67671217127125 289.0777388008505 179.54922622188178 C 288.9734321149864 179.42174027249231 288.93029699233284 179.2534968449773 288.96 179.09 L 305.57 87.82 C 305.6325056723254 87.48927127333747 305.9181421870663 87.24984066539294 306.25 87.25 L 338.35 87.25 C 338.5106123497374 87.25019627155379 338.6628020785439 87.32187786114936 338.7652429556404 87.44558005236028 C 338.867683832737 87.56928224357121 338.90974316986114 87.73216556377868 338.88 87.89 L 333.33 119.31 Q 333.13 120.41 334.23 120.23 Z" stroke-linecap="round" />
</g>
		<g transform="matrix(1 0 0 1 -33.62 5.24)"  >
<path style="stroke: none; stroke-width: 1; stroke-dasharray: none; stroke-linecap: butt; stroke-dashoffset: 0; stroke-linejoin: miter; stroke-miterlimit: 4; fill: rgb(255,255,255); fill-rule: nonzero; opacity: 1;" vector-effect="non-scaling-stroke"  transform=" translate(-440.52, -133.75)" d="M 434.22 117.53 C 434.2565641226243 117.68793854421766 434.3848417887993 117.80818916224389 434.54481061784423 117.83448540811429 C 434.7047794468891 117.86078165398469 434.8648011501414 117.78792271312459 434.95 117.65 L 452.76 87.69 Q 453.02 87.25 453.53 87.25 L 488.24 87.25 C 488.42420789566563 87.25155999638454 488.5926368731651 87.35428265186582 488.6783479479291 87.51734274531931 C 488.7640590226931 87.68040283877282 488.7531667260451 87.87738411271626 488.65 88.03 Q 466.88 119.01 445.19 150.19 C 444.11 151.73 444.25 152.13 443.91 153.71 Q 441.15 166.72 438.88 179.71 C 438.82662520346713 180.02113111287827 438.5608899656127 180.24890417389636 438.25 180.25 L 407.26 180.25 Q 406.72 180.25 406.81 179.73 Q 409.08 166.66 411.43 153.67 Q 411.83 151.48 411.18 149.37 Q 401.83 118.52 392.33 87.81 C 392.28875716609156 87.67976627336016 392.31332047300924 87.53770045532193 392.3961836601505 87.42721620580022 C 392.4790468472918 87.31673195627853 392.61036172665104 87.2509601926142 392.75 87.25 L 427.36 87.25 C 427.68196906970775 87.25163334068235 427.9600099662623 87.47572600357707 428.03 87.79 L 434.22 117.53 Z" stroke-linecap="round" />
</g>
		<g transform="matrix(1 0 0 1 157.58 5.24)"  >
<path style="stroke: none; stroke-width: 1; stroke-dasharray: none; stroke-linecap: butt; stroke-dashoffset: 0; stroke-linejoin: miter; stroke-miterlimit: 4; fill: rgb(255,255,255); fill-rule: nonzero; opacity: 1;" vector-effect="non-scaling-stroke"  transform=" translate(-631.72, -133.75)" d="M 645 124.52 L 651.11 87.55 C 651.1395803552056 87.37489480264874 651.2924312172404 87.24751908428632 651.47 87.25 L 683.99 87.25 C 684.0950971375286 87.25144785386564 684.1943127167366 87.29875394059613 684.2616006489284 87.37949945922634 C 684.3288885811203 87.46024497785655 684.3575278242766 87.56636467796334 684.34 87.67 L 667.43 179.95 C 667.4010489365496 180.1213776173077 667.2537892197495 180.24760023170785 667.08 180.25 L 635.42 180.25 C 635.2758794971735 180.24933379483943 635.1460459212353 180.16277807754733 635.09 180.03 L 619.83 143.59 C 619.7664110705317 143.44834685732562 619.6191649543463 143.36342502690442 619.4647099070339 143.37932481118656 C 619.3102548597216 143.3952245954687 619.1833972952047 143.5083629812563 619.15 143.66 L 612.34 179.96 C 612.3061118670965 180.13112137822515 612.1544129799744 180.25332325951806 611.98 180.25 L 579.46 180.25 C 579.3528026741702 180.24906908098927 579.2515970167407 180.20041258496116 579.1839238593321 180.1172712772878 C 579.1162507019236 180.03412996961444 579.0891512475291 179.925154471116 579.11 179.82 L 596.54 87.54 C 596.5738881329034 87.36887862177487 596.7255870200256 87.24667674048194 596.9 87.25 L 629.5 87.25 C 629.6502222992369 87.24821309077929 629.7857598483084 87.33990025632761 629.84 87.48 L 644.31 124.59 C 644.3688885460031 124.74046934309372 644.5208183519347 124.83326872408345 644.6815756534255 124.816960012338 C 644.8423329549164 124.80065130059255 644.9725302612602 124.67923032850241 645 124.52 Z" stroke-linecap="round" />
</g>
		<g transform="matrix(1 0 0 1 253.91 5.24)"  >
<path style="stroke: none; stroke-width: 1; stroke-dasharray: none; stroke-linecap: butt; stroke-dashoffset: 0; stroke-linejoin: miter; stroke-miterlimit: 4; fill: rgb(255,255,255); fill-rule: nonzero; opacity: 1;" vector-effect="non-scaling-stroke"  transform=" translate(-728.06, -133.75)" d="M 741.26 117.35 L 729.11 179.85 C 729.0667857304601 180.08128250097957 728.8652837217003 180.24920084161275 728.63 180.25 L 696.38 180.25 C 696.2345775249877 180.2495063752019 696.096887247435 180.18444429709797 696.0041700383293 180.0724110027619 C 695.9114528292237 179.96037770842582 695.8732887578269 179.81294911488257 695.9 179.67 L 707.46 117.32 C 707.4867112421731 117.17705088511741 707.4485471707764 117.02962229157416 707.3558299616707 116.91758899723808 C 707.2631127525649 116.80555570290203 707.1254224750123 116.7404936247981 706.98 116.74 L 684.7 116.73 C 684.554916275368 116.73194904687966 684.4164293945312 116.66949783930872 684.3218427677243 116.5594684979212 C 684.2272561409176 116.44943915653369 684.1862976328571 116.3031477688568 684.21 116.16 L 688.84 87.66 C 688.8795289551673 87.42099870907988 689.087773631887 87.24675316325325 689.33 87.25 L 771.43 87.25 C 771.5775530156271 87.24990586037946 771.7172924672503 87.3163084204941 771.8104113451442 87.43076704123861 C 771.903530223038 87.54522566198311 771.9401128964915 87.69555238060865 771.91 87.84 L 765.76 116.12 C 765.7134170974629 116.34367675036003 765.5184311002051 116.50547364170149 765.29 116.51 L 741.74 116.95 C 741.5047162782997 116.95079915838727 741.30321426954 117.11871749902042 741.26 117.35 Z" stroke-linecap="round" />
</g>
		<g transform="matrix(1 0 0 1 305.78 -6.08)"  >
<path style="stroke: none; stroke-width: 1; stroke-dasharray: none; stroke-linecap: butt; stroke-dashoffset: 0; stroke-linejoin: miter; stroke-miterlimit: 4; fill: rgb(255,255,255); fill-rule: nonzero; opacity: 1;" vector-effect="non-scaling-stroke"  transform=" translate(-779.92, -122.43)" d="M 774.37 114.03 C 774.3906503276767 113.88994384367281 774.5195593792799 113.79215077004274 774.66 113.81 L 779.81 114.55 C 782.2050175770261 114.8940990231975 784.3820296603748 116.0589728997761 785.861811683142 117.78819853347866 C 787.3415937059092 119.51742416718123 788.002843326154 121.66925154625942 787.7 123.77 L 787.62 124.33 C 786.9856724509077 128.70085282045358 782.4332699772319 131.65969061307862 777.45 130.94 L 772.3 130.2 C 772.1599438436727 130.1793496723233 772.0621507700428 130.05044062072002 772.08 129.91 L 774.37 114.03 Z" stroke-linecap="round" />
</g>
		<g transform="matrix(1 0 0 1 14.89 5.4)"  >
<path style="stroke: none; stroke-width: 1; stroke-dasharray: none; stroke-linecap: butt; stroke-dashoffset: 0; stroke-linejoin: miter; stroke-miterlimit: 4; fill: rgb(255,255,255); fill-rule: nonzero; opacity: 1;" vector-effect="non-scaling-stroke"  transform=" translate(-489.04, -133.91)" d="M 483.61 115.55 Q 483.62 115.52 483.66 115.52 C 486.57 115.49 489.74 115.15 492.36 116.13 Q 499.38 118.76 500.08 126.65 Q 502.31 151.68 477.96 152.39 C 477.7016438789607 152.3969836060701 477.45384518432286 152.28740589502976 477.285169337403 152.09158680837564 C 477.1164934904831 151.89576772172148 477.04482705663185 151.63447212267684 477.09 151.38 L 483.61 115.55 Z" stroke-linecap="round" />
</g>
		<g transform="matrix(1 0 0 1 -357.12 29.89)"  >
<path style="stroke: none; stroke-width: 1; stroke-dasharray: none; stroke-linecap: butt; stroke-dashoffset: 0; stroke-linejoin: miter; stroke-miterlimit: 4; fill: rgb(255,255,255); fill-rule: nonzero; opacity: 1;" vector-effect="non-scaling-stroke"  transform=" translate(-117.03, -158.4)" d="M 63.96 123.24 L 172.54 123.25 Q 173.07 123.25 173.1 123.77 C 176.2 168.01 148.84 196.09 104.5 193.39 C 63.76 190.92 55.44 156.81 63.47 123.63 C 63.52933356522756 123.39977742622317 63.73112421223786 123.23916854390886 63.96 123.24 Z M 148.3 139.5 L 84 139.5 Q 83.41 139.5 83.36 140.08 Q 82.98 144.45 82.87 148.72 C 82.39 166.15 92.82 175.55 109 176.72 C 128.18 178.11 144.66 169.34 148.35 149.5 C 148.87 146.72 148.87 143.41 149.1 140.37 C 149.11674689819958 140.14483581369865 149.03991475528986 139.92290715354363 148.88803283770562 139.7577355681708 C 148.7361509201214 139.59256398279794 148.5230055322548 139.4991420782337 148.3 139.5 Z" stroke-linecap="round" />
</g>
		<g transform="matrix(1 0 0 1 301.65 38.63)"  >
<path style="stroke: none; stroke-width: 1; stroke-dasharray: none; stroke-linecap: butt; stroke-dashoffset: 0; stroke-linejoin: miter; stroke-miterlimit: 4; fill: rgb(255,255,255); fill-rule: nonzero; opacity: 1;" vector-effect="non-scaling-stroke"  transform=" translate(-775.8, -167.14)" d="M 766.5 154.69 C 766.5807069449668 154.2897610525455 766.931707513109 154.0014391572858 767.34 154 L 773.03 154 C 773.2589484665815 154.0013884585041 773.476472375452 154.09958997758525 773.6275108343242 154.26974722871972 C 773.7785492931964 154.43990447985416 773.8486250028367 154.66570759428512 773.82 154.89 C 772.41 166.97 776.79 177.77 789.96 179.76 Q 790.33 179.81 790.06 180.08 Q 789.95 180.19 789.75 180.2 Q 775.81 180.29 761.87 180.24 Q 761.3 180.23 761.41 179.68 L 766.5 154.69 Z" stroke-linecap="round" />
</g>
</g>
</g>
</svg>